<?xml version="1.0" standalone="no"?><!DOCTYPE svg PUBLIC "-//W3C//DTD SVG 1.1//EN" "http://www.w3.org/Graphics/SVG/1.1/DTD/svg11.dtd"><svg class="icon" width="48px" height="48.00px" viewBox="0 0 1024 1024" version="1.1" xmlns="http://www.w3.org/2000/svg"><path fill="#333333" d="M830.029207 595.796043a35.242522 35.242522 0 0 1 8.00634 39.410206A36.63175 36.63175 0 0 1 804.328488 658.055395h-218.218481l114.830666 271.923113a36.741426 36.741426 0 0 1-19.412634 48.001485l-101.121179 42.846718a36.741426 36.741426 0 0 1-48.001485-19.412634l-109.090961-258.213626-178.223336 178.223336a36.412399 36.412399 0 0 1-25.700719 10.857914c-4.569829 0-9.724596-1.133318-13.709488-2.851573A36.63175 36.63175 0 0 1 182.831726 895.723068v-859.127876C182.831726 21.752387 191.971384 8.591279 205.680871 2.888132 209.665762 1.169876 214.82053 0.036559 219.390359 0.036559c9.724596 0 18.864255 3.436512 25.700719 10.857914z"  /></svg>