<?xml version="1.0" standalone="no"?><!DOCTYPE svg PUBLIC "-//W3C//DTD SVG 1.1//EN" "http://www.w3.org/Graphics/SVG/1.1/DTD/svg11.dtd"><svg t="1568612732938" class="icon" viewBox="0 0 1024 1024" version="1.1" xmlns="http://www.w3.org/2000/svg" p-id="4427" xmlns:xlink="http://www.w3.org/1999/xlink" width="48" height="48"><defs><style type="text/css"></style></defs><path d="M85.333333 85.333333v256h97.28l55.04 341.333334H170.666667v256h256v-82.773334l213.333333-0.426666V938.666667h256v-256h-78.08L853.333333 384h85.333334V128h-256v150.613333L631.466667 341.333333H409.173333L341.333333 248.32V85.333333M170.666667 170.666667h85.333333v85.333333H170.666667m597.333333-42.666667h85.333333v85.333334h-85.333333M269.226667 341.333333h34.133333L384 451.84V597.333333h256v-131.84L706.986667 384H768l-35.84 298.666667H640v87.893333h-213.333333V682.666667H324.266667m145.066666-256h85.333334v85.333333h-85.333334m-213.333333 256h85.333333v85.333333H256m469.333333-85.333333h85.333334v85.333333h-85.333334" fill="" p-id="4428"></path></svg>