<?xml version="1.0" standalone="no"?><!DOCTYPE svg PUBLIC "-//W3C//DTD SVG 1.1//EN" "http://www.w3.org/Graphics/SVG/1.1/DTD/svg11.dtd"><svg class="icon" width="48px" height="48.00px" viewBox="0 0 1024 1024" version="1.1" xmlns="http://www.w3.org/2000/svg"><path fill="#333333" d="M187.733333 819.2h-170.666666c-10.24 0-17.066667 6.826667-17.066667 17.066667v170.666666c0 10.24 6.826667 17.066667 17.066667 17.066667h170.666666c10.24 0 17.066667-6.826667 17.066667-17.066667v-170.666666c0-10.24-6.826667-17.066667-17.066667-17.066667zM1006.933333 0h-170.666666c-10.24 0-17.066667 6.826667-17.066667 17.066667v170.666666c0 10.24 6.826667 17.066667 17.066667 17.066667h170.666666c10.24 0 17.066667-6.826667 17.066667-17.066667v-170.666666c0-10.24-6.826667-17.066667-17.066667-17.066667z"  /><path fill="#333333" d="M187.733333 853.333333c-3.413333 0-10.24 0-13.653333-3.413333-6.826667-6.826667-6.826667-17.066667 0-23.893333l648.533333-648.533334c6.826667-6.826667 17.066667-6.826667 23.893334 0s6.826667 17.066667 0 23.893334l-648.533334 648.533333c0 3.413333-6.826667 3.413333-10.24 3.413333z"  /></svg>